<?xml version="1.0" encoding="utf-8"?>
<!-- Generator: Adobe Illustrator 26.1.0, SVG Export Plug-In . SVG Version: 6.00 Build 0)  -->
<svg version="1.1" id="Layer_1" xmlns="http://www.w3.org/2000/svg" xmlns:xlink="http://www.w3.org/1999/xlink" x="0px" y="0px"
	 viewBox="0 0 1920 1080" style="enable-background:new 0 0 1920 1080;" xml:space="preserve">
<style type="text/css">
	.st0{clip-path:url(#SVGID_00000134221768881050653040000000909790559876883881_);}
	.st1{fill:#FFFFFF;}
	.st2{fill:url(#SVGID_00000007391628094774003870000002495493441639175831_);}
	.st3{fill:url(#SVGID_00000164506976086879028270000015226551229545948832_);}
	.st4{fill:url(#SVGID_00000082352280633469281180000003904888885877265798_);}
	.st5{fill:url(#SVGID_00000180333405973565847620000006445033482657360042_);}
	.st6{opacity:0.4;fill:#8FE2EA;enable-background:new    ;}
	.st7{fill:url(#SVGID_00000145771422024928623530000002867652023239901081_);}
	.st8{fill:url(#SVGID_00000129178963129129974580000015862071883507481769_);}
	.st9{fill:url(#SVGID_00000113324697533292500100000016763421861837229996_);}
	.st10{fill:url(#SVGID_00000155853554852559904120000003103008625869753278_);}
	.st11{fill:url(#SVGID_00000181053939642130708990000015888028417312857485_);}
	.st12{fill:url(#SVGID_00000024683927345712936380000012759449076130639289_);}
	.st13{opacity:0.4;}
	.st14{fill:#3E1E7D;}
	.st15{opacity:0.2;}
	.st16{fill:#331D74;}
</style>
<g>
	<g>
		<defs>
			<rect id="SVGID_1_" width="1920" height="1080"/>
		</defs>
		<clipPath id="SVGID_00000074410937763991678210000004303715162460791707_">
			<use xlink:href="#SVGID_1_"  style="overflow:visible;"/>
		</clipPath>
		<g id="Group:_Rocket" style="clip-path:url(#SVGID_00000074410937763991678210000004303715162460791707_);">
			<path class="st1" d="M53.5-9.5c27.7-0.3,55.3-0.7,83-1c15.4,7.6,37.5,20.6,59,42c47.1,47,35.9,79.7,80,126
				c36.3,38.1,53.9,26.5,88,68c34.5,42,20.7,59,47.9,82.1c38.8,33,70.8,1.4,150.1,32.9c26.8,10.7,56.1,22.3,86,49
				c25.7,23,36.3,43.3,62.7,47.9c22,3.9,28.2-0.1,52.1-10.3c35.3-15,93,32.2,124.7,53c31.6,20.8,73.3,20.8,73.3,20.8l1.7,20.2
				c0,0-56.3-13.8-95.9,25.8s-40.7,130.6-130.6,148.8s-143.4-5.3-167,43.9c-20.1,42-54.5,72.6-83.6,96.4
				c-48.4,39.8-67.6,18.1-111.5,58.4c-24.3,22.3-16.1,26.7-51,68c-34.9,41.2-61.1,72.1-102,82c-35.4,8.5-47-7-78,2
				c-40.2,11.7-64.2,50.6-78,81c-26.3,0.3-52.7,0.7-79,1c-9-51.2-17.1-103.9-24-158c-35.8-280.9-32.3-540-9-769
				C-72.3,98.6-48.9,14-0.5-7.5C9.3-11.9,26.7-16.5,53.5-9.5z"/>
			<g>
				
					<linearGradient id="SVGID_00000069387440461772812420000011569853852963734179_" gradientUnits="userSpaceOnUse" x1="971.3517" y1="601.2546" x2="903.05" y2="569.4322" gradientTransform="matrix(0.7353 0.6777 0.6777 -0.7353 -130.3542 264.2743)">
					<stop  offset="0" style="stop-color:#271A6B"/>
					<stop  offset="0.2115" style="stop-color:#2E1B71"/>
					<stop  offset="0.5268" style="stop-color:#431E81"/>
					<stop  offset="0.9052" style="stop-color:#64249B"/>
					<stop  offset="1" style="stop-color:#6D25A2"/>
				</linearGradient>
				<path style="fill:url(#SVGID_00000069387440461772812420000011569853852963734179_);" d="M996.6,477c0,0-23.2-20.2-24.3-20.7
					c-1.1-0.5-26.6-4.5-55.2,0l39.2,31.1L996.6,477z"/>
				
					<linearGradient id="SVGID_00000183242686248314781460000017567311148730993293_" gradientUnits="userSpaceOnUse" x1="971.3517" y1="601.2546" x2="903.05" y2="569.4322" gradientTransform="matrix(0.7353 0.6777 0.6777 -0.7353 -130.3542 264.2743)">
					<stop  offset="0" style="stop-color:#271A6B"/>
					<stop  offset="0.2115" style="stop-color:#2E1B71"/>
					<stop  offset="0.5268" style="stop-color:#431E81"/>
					<stop  offset="0.9052" style="stop-color:#64249B"/>
					<stop  offset="1" style="stop-color:#6D25A2"/>
				</linearGradient>
				<path style="fill:url(#SVGID_00000183242686248314781460000017567311148730993293_);" d="M996.6,477c0,0-23.2-20.2-24.3-20.7
					c-1.1-0.5-26.6-4.5-55.2,0l39.2,31.1L996.6,477z"/>
				
					<linearGradient id="SVGID_00000027605653480100766770000007412211651098759865_" gradientUnits="userSpaceOnUse" x1="1012.76" y1="567.2163" x2="974.3402" y2="496.9741" gradientTransform="matrix(0.7353 0.6777 0.6777 -0.7353 -130.3542 264.2743)">
					<stop  offset="0" style="stop-color:#271A6B"/>
					<stop  offset="0.2115" style="stop-color:#2E1B71"/>
					<stop  offset="0.5268" style="stop-color:#431E81"/>
					<stop  offset="0.9052" style="stop-color:#64249B"/>
					<stop  offset="1" style="stop-color:#6D25A2"/>
				</linearGradient>
				<path style="fill:url(#SVGID_00000027605653480100766770000007412211651098759865_);" d="M999,536.4c0,0-21.5,22-22.5,22.6
					c-1,0.6-26.1,6.7-55,4.5l36.5-34.2L999,536.4z"/>
				
					<linearGradient id="SVGID_00000137826485968275068850000005303477328926472377_" gradientUnits="userSpaceOnUse" x1="994.7766" y1="648.0735" x2="1051.7045" y2="579.5276" gradientTransform="matrix(0.7353 0.6777 0.6777 -0.7353 -130.3542 264.2743)">
					<stop  offset="5.008000e-04" style="stop-color:#FFFFFF"/>
					<stop  offset="0.1294" style="stop-color:#FAFEFE"/>
					<stop  offset="0.276" style="stop-color:#EDFAFC"/>
					<stop  offset="0.4313" style="stop-color:#D6F4F8"/>
					<stop  offset="0.5915" style="stop-color:#B6EBF2"/>
					<stop  offset="0.7399" style="stop-color:#92E1EC"/>
					<stop  offset="0.9932" style="stop-color:#3CFECD"/>
				</linearGradient>
				<path style="fill:url(#SVGID_00000137826485968275068850000005303477328926472377_);" d="M941.5,490.2
					c8.3-3.7,55-19.2,90.8-20.7c41.6-1.7,103.1,24,103.4,31.6s-58.9,38.2-100.5,39.9c-35.7,1.5-83.6-10.2-92.1-13.2L941.5,490.2z"/>
				<path class="st6" d="M1065.6,504.1c-0.3,0-0.5-0.2-0.5-0.5s0.2-0.5,0.5-0.5c0.3,0,0.5,0.2,0.5,0.5
					C1066.1,503.9,1065.9,504.1,1065.6,504.1z M1068.8,504c-0.3,0-0.5-0.2-0.5-0.5s0.2-0.5,0.5-0.5c0.3,0,0.5,0.2,0.5,0.5
					S1069,504,1068.8,504z M1071.9,503.9c-0.3,0-0.5-0.2-0.5-0.5s0.2-0.5,0.5-0.5c0.3,0,0.5,0.2,0.5,0.5S1072.2,503.9,1071.9,503.9z
					 M1075,503.8c-0.3,0-0.5-0.2-0.5-0.5c0-0.3,0.2-0.5,0.5-0.5c0.3,0,0.5,0.2,0.5,0.5C1075.5,503.5,1075.3,503.8,1075,503.8z
					 M1078.2,503.6c-0.3,0-0.5-0.2-0.5-0.5c0-0.3,0.2-0.5,0.5-0.5c0.3,0,0.5,0.2,0.5,0.5S1078.4,503.6,1078.2,503.6z M1081.3,503.5
					c-0.3,0-0.5-0.2-0.5-0.5c0-0.3,0.2-0.5,0.5-0.5c0.3,0,0.5,0.2,0.5,0.5S1081.6,503.5,1081.3,503.5z M1084.4,503.4
					c-0.3,0-0.5-0.2-0.5-0.5c0-0.3,0.2-0.5,0.5-0.5c0.3,0,0.5,0.2,0.5,0.5S1084.7,503.4,1084.4,503.4z M1087.6,503.3
					c-0.3,0-0.5-0.2-0.5-0.5c0-0.3,0.2-0.5,0.5-0.5c0.3,0,0.5,0.2,0.5,0.5S1087.8,503.2,1087.6,503.3z M1090.7,503.1
					c-0.3,0-0.5-0.2-0.5-0.5s0.2-0.5,0.5-0.5c0.3,0,0.5,0.2,0.5,0.5C1091.2,502.9,1090.9,503.1,1090.7,503.1z M1063,503.8
					c0-0.3-0.2-0.5-0.5-0.5c-0.3,0-0.5,0.2-0.5,0.5c0,0.3,0.2,0.5,0.5,0.5C1062.8,504.3,1063,504,1063,503.8z M1059.8,503.9
					c0-0.3-0.2-0.5-0.5-0.5c-0.3,0-0.5,0.2-0.5,0.5c0,0.3,0.2,0.5,0.5,0.5C1059.6,504.4,1059.8,504.2,1059.8,503.9z M1056.7,504
					c0-0.3-0.2-0.5-0.5-0.5c-0.3,0-0.5,0.2-0.5,0.5c0,0.3,0.2,0.5,0.5,0.5C1056.5,504.5,1056.7,504.3,1056.7,504z M999.7,506.8
					c-0.3,0-0.5-0.2-0.5-0.5c0-0.3,0.2-0.5,0.5-0.5c0.3,0,0.5,0.2,0.5,0.5C1000.2,506.6,1000,506.8,999.7,506.8z M1002.9,506.7
					c-0.3,0-0.5-0.2-0.5-0.5c0-0.3,0.2-0.5,0.5-0.5c0.3,0,0.5,0.2,0.5,0.5C1003.3,506.5,1003.1,506.7,1002.9,506.7z M1006,506.6
					c-0.3,0-0.5-0.2-0.5-0.5c0-0.3,0.2-0.5,0.5-0.5c0.3,0,0.5,0.2,0.5,0.5S1006.3,506.6,1006,506.6z M1009.1,506.5
					c-0.3,0-0.5-0.2-0.5-0.5c0-0.3,0.2-0.5,0.5-0.5c0.3,0,0.5,0.2,0.5,0.5C1009.6,506.2,1009.4,506.5,1009.1,506.5z M987,519.8
					c-0.3,0-0.5-0.2-0.5-0.5c0-0.3,0.2-0.5,0.5-0.5s0.5,0.2,0.5,0.5C987.4,519.6,987.2,519.8,987,519.8z M990.1,519.7
					c-0.3,0-0.5-0.2-0.5-0.5c0-0.3,0.2-0.5,0.5-0.5c0.3,0,0.5,0.2,0.5,0.5C990.6,519.4,990.4,519.7,990.1,519.7z M993.2,519.5
					c-0.3,0-0.5-0.2-0.5-0.5c0-0.3,0.2-0.5,0.5-0.5c0.3,0,0.5,0.2,0.5,0.5S993.5,519.5,993.2,519.5z M996.4,519.4
					c-0.3,0-0.5-0.2-0.5-0.5c0-0.3,0.2-0.5,0.5-0.5c0.3,0,0.5,0.2,0.5,0.5C996.8,519.2,996.6,519.4,996.4,519.4z M947,492
					c0-0.1,0-0.3,0.2-0.3c0.5-0.2,55.3-16.7,80.8-17.7c14.1-0.6,26.2,0.1,38.8,2.5l-0.2-3.7c0.2,0,0.3,0.1,0.5,0.1l0.2,3.6
					c5.4,1,11,2.4,16.8,4l-0.2-3.6c0.2,0,0.3,0.1,0.5,0.1l0.2,3.6c4.7,1.4,9.5,2.9,14.6,4.7c0.1,0,0.2,0.2,0.2,0.3
					c-0.1,0.1-0.2,0.2-0.3,0.1c-26.4-9.4-45.7-12.5-70.9-11.4c-25.4,1-80.1,17.5-80.7,17.7c-0.1,0-0.2,0-0.2-0.1
					C947,492.1,947,492,947,492z M1068.7,529.8c0-0.1,0-0.1-0.1-0.2s-0.1-0.1-0.2-0.1l-26.9,1.1c-0.1,0-0.1,0-0.2,0.1
					c-0.1,0-0.1,0.1-0.1,0.2l0.4,9.6c0.2,0,0.3,0,0.5,0l-0.4-9.3l26.4-1.1l0.2,5c0.2,0,0.3-0.1,0.5-0.1L1068.7,529.8z M985.7,537.2
					c-0.2,0-0.3,0-0.5-0.1l-0.8-19.8l-0.2-4.6l-37,1.5c-0.1,0-0.1,0-0.2-0.1c0,0-0.1-0.1-0.1-0.2c0-0.1,0.1-0.2,0.2-0.3l67.3-2.7
					c0.1,0,0.2,0.1,0.3,0.2c0,0.1-0.1,0.2-0.2,0.3l-12.8,0.5l0.1,2.5c0,0.1,0,0.1-0.1,0.2l-2,2.2c0,0-0.1,0.1-0.2,0.1l-14.6,0.6
					L985.7,537.2z M984.9,517l14.5-0.6l1.9-2.1l-0.1-2.4l-16.5,0.7L984.9,517z M1067.8,474.3c0-0.3,0.2-0.5,0.5-0.5
					c0.3,0,0.5,0.2,0.5,0.5c0,0.3-0.2,0.5-0.5,0.5C1068.1,474.8,1067.9,474.6,1067.8,474.3z M1067.9,475.7c0-0.3,0.2-0.5,0.5-0.5
					c0.3,0,0.5,0.2,0.5,0.5c0,0.3-0.2,0.5-0.5,0.5C1068.1,476.2,1067.9,476,1067.9,475.7z M1085.2,478.6c0-0.3,0.2-0.5,0.5-0.5
					c0.3,0,0.5,0.2,0.5,0.5c0,0.3-0.2,0.5-0.5,0.5C1085.4,479.1,1085.2,478.9,1085.2,478.6z M1085.3,480c0-0.3,0.2-0.5,0.5-0.5
					c0.3,0,0.5,0.2,0.5,0.5c0,0.3-0.2,0.5-0.5,0.5C1085.5,480.5,1085.3,480.3,1085.3,480z"/>
				
					<linearGradient id="SVGID_00000008145713071039709980000017726866322479438730_" gradientUnits="userSpaceOnUse" x1="1006.8004" y1="642.5092" x2="1028.77" y2="580.7669" gradientTransform="matrix(0.7353 0.6777 0.6777 -0.7353 -130.3542 264.2743)">
					<stop  offset="0" style="stop-color:#3CE1CD"/>
					<stop  offset="0.1068" style="stop-color:#3EDBCE"/>
					<stop  offset="0.2529" style="stop-color:#43C9D0"/>
					<stop  offset="0.4218" style="stop-color:#4CACD5"/>
					<stop  offset="0.6077" style="stop-color:#5884DB"/>
					<stop  offset="0.8055" style="stop-color:#6851E2"/>
					<stop  offset="0.8308" style="stop-color:#6A4AE3"/>
					<stop  offset="1" style="stop-color:#5394D8"/>
				</linearGradient>
				<circle style="fill:url(#SVGID_00000008145713071039709980000017726866322479438730_);" cx="1032.1" cy="505.3" r="20.4"/>
				
					<linearGradient id="SVGID_00000178185485065605737840000007328113352520383409_" gradientUnits="userSpaceOnUse" x1="1012.7123" y1="644.7334" x2="1019.6232" y2="601.3835" gradientTransform="matrix(0.7353 0.6777 0.6777 -0.7353 -130.3542 264.2743)">
					<stop  offset="5.008000e-04" style="stop-color:#FFFFFF"/>
					<stop  offset="0.1294" style="stop-color:#FAFEFE"/>
					<stop  offset="0.276" style="stop-color:#EDFAFC"/>
					<stop  offset="0.4313" style="stop-color:#D6F4F8"/>
					<stop  offset="0.5915" style="stop-color:#B6EBF2"/>
					<stop  offset="0.7399" style="stop-color:#92E1EC"/>
					<stop  offset="0.9932" style="stop-color:#3CFECD"/>
				</linearGradient>
				<circle style="fill:url(#SVGID_00000178185485065605737840000007328113352520383409_);" cx="1032.1" cy="505.3" r="16.3"/>
				
					<linearGradient id="SVGID_00000155843982991435105050000006399834573651930301_" gradientUnits="userSpaceOnUse" x1="1065.0703" y1="678.9433" x2="1093.342" y2="656.3259" gradientTransform="matrix(0.7353 0.6777 0.6777 -0.7353 -130.3542 264.2743)">
					<stop  offset="0" style="stop-color:#271A6B"/>
					<stop  offset="0.2115" style="stop-color:#2E1B71"/>
					<stop  offset="0.5268" style="stop-color:#431E81"/>
					<stop  offset="0.9052" style="stop-color:#64249B"/>
					<stop  offset="1" style="stop-color:#6D25A2"/>
				</linearGradient>
				<path style="fill:url(#SVGID_00000155843982991435105050000006399834573651930301_);" d="M1096.3,480.7l1.8,43.8
					c21.5-9.2,37.7-19.5,37.6-23.5S1118.4,488.1,1096.3,480.7z"/>
				
					<linearGradient id="SVGID_00000040551517102732191440000011564047691014857406_" gradientUnits="userSpaceOnUse" x1="939.5282" y1="565.6992" x2="968.6949" y2="527.4413" gradientTransform="matrix(0.7353 0.6777 0.6777 -0.7353 -130.3542 264.2743)">
					<stop  offset="0" style="stop-color:#271A6B"/>
					<stop  offset="0.2115" style="stop-color:#2E1B71"/>
					<stop  offset="0.5268" style="stop-color:#431E81"/>
					<stop  offset="0.9052" style="stop-color:#64249B"/>
					<stop  offset="1" style="stop-color:#6D25A2"/>
				</linearGradient>
				<path style="fill:url(#SVGID_00000040551517102732191440000011564047691014857406_);" d="M943.8,491.9c-2.7,1-4.8,1.7-5.9,2.2
					l1.2,30c1.2,0.4,3.2,1,6,1.8L943.8,491.9z"/>
				
					<linearGradient id="SVGID_00000093861842514103491100000012563549282750740867_" gradientUnits="userSpaceOnUse" x1="933.9595" y1="581.5648" x2="960.6706" y2="545.2156" gradientTransform="matrix(0.7353 0.6777 0.6777 -0.7353 -130.3542 264.2743)">
					<stop  offset="0" style="stop-color:#271A6B"/>
					<stop  offset="0.2115" style="stop-color:#2E1B71"/>
					<stop  offset="0.5268" style="stop-color:#431E81"/>
					<stop  offset="0.9052" style="stop-color:#64249B"/>
					<stop  offset="1" style="stop-color:#6D25A2"/>
				</linearGradient>
				<path style="fill:url(#SVGID_00000093861842514103491100000012563549282750740867_);" d="M948.8,487.4c-3.4,1.2-5.9,2.2-7.3,2.8
					l1.5,37.5c1.5,0.5,4.1,1.3,7.6,2.2L948.8,487.4z"/>
				
					<linearGradient id="SVGID_00000112624897154557134870000004513036504508409504_" gradientUnits="userSpaceOnUse" x1="960.7217" y1="580.2521" x2="966.5428" y2="556.9675" gradientTransform="matrix(0.7353 0.6777 0.6777 -0.7353 -130.3542 264.2743)">
					<stop  offset="0" style="stop-color:#271A6B"/>
					<stop  offset="0.2115" style="stop-color:#2E1B71"/>
					<stop  offset="0.5268" style="stop-color:#431E81"/>
					<stop  offset="0.9052" style="stop-color:#64249B"/>
					<stop  offset="1" style="stop-color:#6D25A2"/>
				</linearGradient>
				<path style="fill:url(#SVGID_00000112624897154557134870000004513036504508409504_);" d="M967.9,510.7
					c-26.8,1.1-48.6,0.8-48.7-0.8c-0.1-1.5,21.6-3.6,48.4-4.7s30,0,30.1,1.5C997.9,508.2,994.7,509.6,967.9,510.7z"/>
				<g class="st13">
					<path class="st14" d="M1098.4,486.3L1098.4,486.3c0-0.3,0.2-0.6,0.6-0.6l1.7-0.1c0.3,0,0.6,0.2,0.6,0.6l0,0
						c0,0.3-0.2,0.6-0.6,0.6l-1.7,0.1C1098.7,486.9,1098.4,486.6,1098.4,486.3z"/>
					<path class="st14" d="M1098.6,490.3L1098.6,490.3c0-0.3,0.2-0.6,0.6-0.6l1.7-0.1c0.3,0,0.6,0.2,0.6,0.6l0,0
						c0,0.3-0.2,0.6-0.6,0.6l-1.7,0.1C1098.9,490.9,1098.6,490.7,1098.6,490.3z"/>
					<path class="st14" d="M1098.7,494.4L1098.7,494.4c0-0.3,0.2-0.6,0.6-0.6l1.7-0.1c0.3,0,0.6,0.2,0.6,0.6l0,0
						c0,0.3-0.2,0.6-0.6,0.6l-1.7,0.1C1099,495,1098.8,494.7,1098.7,494.4z"/>
					<path class="st14" d="M1098.9,498.5L1098.9,498.5c0-0.3,0.2-0.6,0.6-0.6l1.7-0.1c0.3,0,0.6,0.2,0.6,0.6l0,0
						c0,0.3-0.2,0.6-0.6,0.6l-1.7,0.1C1099.2,499,1098.9,498.8,1098.9,498.5z"/>
					<path class="st14" d="M1099.1,502.5L1099.1,502.5c0-0.3,0.2-0.6,0.6-0.6l1.7-0.1c0.3,0,0.6,0.2,0.6,0.6l0,0
						c0,0.3-0.2,0.6-0.6,0.6l-1.7,0.1C1099.4,503.1,1099.1,502.9,1099.1,502.5z"/>
					<path class="st14" d="M1099.2,506.6L1099.2,506.6c0-0.3,0.2-0.6,0.6-0.6l1.7-0.1c0.3,0,0.6,0.2,0.6,0.6l0,0
						c0,0.3-0.2,0.6-0.6,0.6l-1.7,0.1C1099.5,507.2,1099.3,506.9,1099.2,506.6z"/>
					<path class="st14" d="M1099.4,510.7L1099.4,510.7c0-0.3,0.2-0.6,0.6-0.6l1.7-0.1c0.3,0,0.6,0.2,0.6,0.6l0,0
						c0,0.3-0.2,0.6-0.6,0.6l-1.7,0.1C1099.7,511.2,1099.4,511,1099.4,510.7z"/>
					<path class="st14" d="M1099.6,514.7L1099.6,514.7c0-0.3,0.2-0.6,0.6-0.6l1.7-0.1c0.3,0,0.6,0.2,0.6,0.6l0,0
						c0,0.3-0.2,0.6-0.6,0.6l-1.7,0.1C1099.9,515.3,1099.6,515.1,1099.6,514.7z"/>
					<path class="st14" d="M1099.7,518.8L1099.7,518.8c0-0.3,0.2-0.6,0.6-0.6l1.7-0.1c0.3,0,0.6,0.2,0.6,0.6l0,0
						c0,0.3-0.2,0.6-0.6,0.6l-1.7,0.1C1100,519.4,1099.8,519.1,1099.7,518.8z"/>
				</g>
				<g class="st15">
					<path class="st16" d="M954.8,479l-18.5-14.4c0,0-0.1-0.1-0.2,0l-8.2,0.3l0.6,0.5l7.5-0.3L954,479l-7.9,0.3l0.6,0.5l8-0.3
						c0.1,0,0.2-0.1,0.2-0.2C954.9,479.1,954.9,479,954.8,479z"/>
					<path class="st16" d="M980.2,473.3l11.6-0.5c-0.2-0.2-0.4-0.3-0.5-0.5l-10.9,0.5l-19.5-18c-0.3,0-0.5,0-0.8-0.1l3.7,3.4
						c-15.5-1.4-32.4-0.4-43.4,0.6l0.6,0.5c11.1-1,28.1-2,43.4-0.5l15.7,14.5C980,473.2,980.1,473.3,980.2,473.3z"/>
				</g>
				<g class="st15">
					<path class="st16" d="M995,540.5l-12,0.5c-0.1,0-0.1,0-0.2,0.1l-14.5,15.7c-15,2.7-31.7,3.1-42.9,3l-0.5,0.5
						c11,0.1,27.8-0.3,42.8-2.9l-3.9,4.3c0.3,0,0.5-0.1,0.8-0.1l18.5-20l11.4-0.5C994.7,540.8,994.8,540.7,995,540.5z"/>
					<path class="st16" d="M932.6,553.1l-0.6,0.5l7.7-0.3c0.1,0,0.1,0,0.2-0.1l17.3-15.9c0.1-0.1,0.1-0.2,0.1-0.3
						c0-0.1-0.1-0.2-0.2-0.2l-7.5,0.3l-0.6,0.5l7.4-0.3l-16.7,15.3L932.6,553.1z"/>
				</g>
			</g>
		</g>
	</g>
</g>
</svg>
